<svg fill="none" height="26" width="32" xmlns="http://www.w3.org/2000/svg"><rect fill="#000" fill-opacity="0.2" height="26" rx="6" width="32"></rect><path clip-rule="evenodd" d="M26 0H6a6 6 0 00-6 6v14a6 6 0 006 6h20a6 6 0 006-6V6a6 6 0 00-6-6zM2 6a4 4 0 014-4h20a4 4 0 014 4v14a4 4 0 01-4 4H6a4 4 0 01-4-4V6zm4 1a1 1 0 011-1h6a1 1 0 110 2H8v2a1 1 0 11-2 0V7zm12 0a1 1 0 011-1h6a1 1 0 011 1v3a1 1 0 11-2 0V8h-5a1 1 0 01-1-1zm7 8a1 1 0 011 1v3a1 1 0 01-.987 1H19a1 1 0 110-2h5v-2a1 1 0 011-1zM7 15a1 1 0 011 1v2h5a1 1 0 110 2H7a1 1 0 01-1-1v-3a1 1 0 011-1z" fill="#fff" fill-rule="evenodd"></path></svg>